<mxfile host="" modified="2020-06-17T11:35:01.408Z" agent="5.0 (Macintosh; Intel Mac OS X 10_15_5) AppleWebKit/537.36 (KHTML, like Gecko) Code/1.45.1 Chrome/78.0.3904.130 Electron/7.2.4 Safari/537.36" etag="QN5y7MBFsNjtLDUWv_BE" version="13.1.3">
    <diagram id="6hGFLwfOUW9BJ-s0fimq" name="Page-1">
        <mxGraphModel dx="1378" dy="860" grid="1" gridSize="10" guides="1" tooltips="1" connect="1" arrows="1" fold="1" page="1" pageScale="1" pageWidth="827" pageHeight="1169" math="0" shadow="0">
            <root>
                <mxCell id="0"/>
                <mxCell id="1" parent="0"/>
                <mxCell id="11" style="edgeStyle=orthogonalEdgeStyle;rounded=0;orthogonalLoop=1;jettySize=auto;html=1;entryX=0;entryY=0.5;entryDx=0;entryDy=0;" edge="1" parent="1" source="2" target="8">
                    <mxGeometry relative="1" as="geometry"/>
                </mxCell>
                <mxCell id="13" style="edgeStyle=orthogonalEdgeStyle;rounded=0;orthogonalLoop=1;jettySize=auto;html=1;entryX=0;entryY=0.5;entryDx=0;entryDy=0;" edge="1" parent="1" source="2" target="9">
                    <mxGeometry relative="1" as="geometry"/>
                </mxCell>
                <mxCell id="14" style="edgeStyle=orthogonalEdgeStyle;rounded=0;orthogonalLoop=1;jettySize=auto;html=1;entryX=0;entryY=0.5;entryDx=0;entryDy=0;" edge="1" parent="1" source="2" target="10">
                    <mxGeometry relative="1" as="geometry"/>
                </mxCell>
                <mxCell id="2" value="所有用户" style="shape=umlActor;verticalLabelPosition=bottom;labelBackgroundColor=#333333;verticalAlign=top;html=1;outlineConnect=0;" vertex="1" parent="1">
                    <mxGeometry x="30" y="500" width="40" height="60" as="geometry"/>
                </mxCell>
                <mxCell id="4" value="申请活动" style="ellipse;whiteSpace=wrap;html=1;labelBackgroundColor=#333333;" vertex="1" parent="1">
                    <mxGeometry x="180" y="60" width="110" height="60" as="geometry"/>
                </mxCell>
                <mxCell id="5" value="终止活动" style="ellipse;whiteSpace=wrap;html=1;labelBackgroundColor=#333333;" vertex="1" parent="1">
                    <mxGeometry x="180" y="150" width="110" height="60" as="geometry"/>
                </mxCell>
                <mxCell id="6" value="删除活动" style="ellipse;whiteSpace=wrap;html=1;labelBackgroundColor=#333333;" vertex="1" parent="1">
                    <mxGeometry x="180" y="240" width="110" height="60" as="geometry"/>
                </mxCell>
                <mxCell id="7" value="活动邀请" style="ellipse;whiteSpace=wrap;html=1;labelBackgroundColor=#333333;" vertex="1" parent="1">
                    <mxGeometry x="180" y="330" width="110" height="60" as="geometry"/>
                </mxCell>
                <mxCell id="8" value="报名活动" style="ellipse;whiteSpace=wrap;html=1;labelBackgroundColor=#333333;" vertex="1" parent="1">
                    <mxGeometry x="180" y="420" width="110" height="60" as="geometry"/>
                </mxCell>
                <mxCell id="9" value="分享活动" style="ellipse;whiteSpace=wrap;html=1;labelBackgroundColor=#333333;" vertex="1" parent="1">
                    <mxGeometry x="180" y="510" width="110" height="60" as="geometry"/>
                </mxCell>
                <mxCell id="10" value="评价活动" style="ellipse;whiteSpace=wrap;html=1;labelBackgroundColor=#333333;" vertex="1" parent="1">
                    <mxGeometry x="180" y="600" width="110" height="60" as="geometry"/>
                </mxCell>
                <mxCell id="16" style="edgeStyle=orthogonalEdgeStyle;rounded=0;orthogonalLoop=1;jettySize=auto;html=1;entryX=0;entryY=0.5;entryDx=0;entryDy=0;" edge="1" parent="1" source="15" target="4">
                    <mxGeometry relative="1" as="geometry"/>
                </mxCell>
                <mxCell id="17" style="edgeStyle=orthogonalEdgeStyle;rounded=0;orthogonalLoop=1;jettySize=auto;html=1;entryX=0;entryY=0.5;entryDx=0;entryDy=0;" edge="1" parent="1" source="15" target="5">
                    <mxGeometry relative="1" as="geometry"/>
                </mxCell>
                <mxCell id="18" style="edgeStyle=orthogonalEdgeStyle;rounded=0;orthogonalLoop=1;jettySize=auto;html=1;entryX=0;entryY=0.5;entryDx=0;entryDy=0;" edge="1" parent="1" source="15" target="6">
                    <mxGeometry relative="1" as="geometry"/>
                </mxCell>
                <mxCell id="19" style="edgeStyle=orthogonalEdgeStyle;rounded=0;orthogonalLoop=1;jettySize=auto;html=1;entryX=0;entryY=0.5;entryDx=0;entryDy=0;" edge="1" parent="1" source="15" target="7">
                    <mxGeometry relative="1" as="geometry"/>
                </mxCell>
                <mxCell id="20" style="edgeStyle=orthogonalEdgeStyle;rounded=0;orthogonalLoop=1;jettySize=auto;html=1;entryX=0.5;entryY=0;entryDx=0;entryDy=0;entryPerimeter=0;endArrow=block;endFill=0;" edge="1" parent="1" source="15" target="2">
                    <mxGeometry relative="1" as="geometry"/>
                </mxCell>
                <mxCell id="15" value="高分用户" style="shape=umlActor;verticalLabelPosition=bottom;labelBackgroundColor=#333333;verticalAlign=top;html=1;outlineConnect=0;" vertex="1" parent="1">
                    <mxGeometry x="30" y="240" width="40" height="60" as="geometry"/>
                </mxCell>
            </root>
        </mxGraphModel>
    </diagram>
</mxfile>